<svg width="101" height="92" viewBox="0 0 101 92" fill="none" xmlns="http://www.w3.org/2000/svg">
<path d="M53.1049 0.100006H59.5576L76.0173 31.9817L92.4424 0.100006H98.9296L78.5017 39.2068H73.4638L53.1049 0.100006ZM51 0.100006H56.6936L57.6253 23.9508V39.2068H51V0.100006ZM95.3064 0.100006H101V39.2068H94.3747V23.9508L95.3064 0.100006Z" fill="#048A95"/>
<path d="M53.1049 91.4141H59.5576L76.0173 57.0047L92.4424 91.4141H98.9296L78.5017 49.2068H73.4638L53.1049 91.4141ZM51 91.4141H56.6936L57.6253 65.6723V49.2068H51V91.4141ZM95.3064 91.4141H101V49.2068H94.3747V65.6723L95.3064 91.4141Z" fill="#048A95"/>
<path d="M1 3.83092L1 15.5749L36 44.5L1 75.4251L1 87.2319L45.2376 49.0217L45.2376 39.8527L1 3.83092ZM1 0L1 12.058L31.4945 12.058L51 12.058L51 0L1 0ZM1 78.942L1 91L51 91V78.942L31.4945 78.942L1 78.942Z" fill="#048A95"/>
</svg>
