<svg width="101" height="92" viewBox="0 0 101 92" fill="none" xmlns="http://www.w3.org/2000/svg">
<path d="M50.8464 81.2875V91.1H9.17075V81.2875H50.8464ZM11.2789 0.100006V91.1H0.846429V0.100006H11.2789ZM45.3329 39.225V49.0375H9.17075V39.225H45.3329ZM50.856 0.100006L50.8156 9.97501H9.17075V0.100006H50.856Z" fill="#048A95"/>
<path d="M52.8883 0.100006H59.341L75.8006 31.9817L92.2258 0.100006H98.713L78.2851 39.2068H73.2471L52.8883 0.100006ZM50.7834 0.100006H56.477L57.4086 23.9508V39.2068H50.7834V0.100006ZM95.0898 0.100006H100.783V39.2068H94.1581V23.9508L95.0898 0.100006Z" fill="#048A95"/>
<path d="M52.8883 91.1H59.341L75.8006 56.6906L92.2258 91.1H98.713L78.2851 48.8926H73.2471L52.8883 91.1ZM50.7834 91.1H56.477L57.4086 65.3582V48.8926H50.7834V91.1ZM95.0898 91.1H100.783V48.8926H94.1581V65.3582L95.0898 91.1Z" fill="#048A95"/>
</svg>
