<?xml version="1.0" standalone="no"?>
<svg transform="rotate(-90)" xmlns:xlink="http://www.w3.org/1999/xlink" id="wave" style="transform:rotate(0deg); transition: 0.3s" viewBox="0 0 1440 130" version="1.1" xmlns="http://www.w3.org/2000/svg" ><defs><linearGradient id="sw-gradient-0" x1="0" x2="0" y1="1" y2="0"><stop stop-color="rgba(34, 116, 165, 1)" offset="0%"/><stop stop-color="rgba(185, 217, 235, 1)" offset="100%"/></linearGradient></defs><path style="transform:translate(0, 0px); opacity:1" fill="url(#sw-gradient-0)" d="M0,0L21.8,0C43.6,0,87,0,131,4.3C174.5,9,218,17,262,30.3C305.5,43,349,61,393,71.5C436.4,82,480,87,524,91C567.3,95,611,100,655,99.7C698.2,100,742,95,785,82.3C829.1,69,873,48,916,41.2C960,35,1004,43,1047,41.2C1090.9,39,1135,26,1178,36.8C1221.8,48,1265,82,1309,82.3C1352.7,82,1396,48,1440,34.7C1483.6,22,1527,30,1571,41.2C1614.5,52,1658,65,1702,69.3C1745.5,74,1789,69,1833,71.5C1876.4,74,1920,82,1964,86.7C2007.3,91,2051,91,2095,95.3C2138.2,100,2182,108,2225,106.2C2269.1,104,2313,91,2356,71.5C2400,52,2444,26,2487,19.5C2530.9,13,2575,26,2618,30.3C2661.8,35,2705,30,2749,26C2792.7,22,2836,17,2880,26C2923.6,35,2967,56,3011,65C3054.5,74,3098,69,3120,67.2L3141.8,65L3141.8,130L3120,130C3098.2,130,3055,130,3011,130C2967.3,130,2924,130,2880,130C2836.4,130,2793,130,2749,130C2705.5,130,2662,130,2618,130C2574.5,130,2531,130,2487,130C2443.6,130,2400,130,2356,130C2312.7,130,2269,130,2225,130C2181.8,130,2138,130,2095,130C2050.9,130,2007,130,1964,130C1920,130,1876,130,1833,130C1789.1,130,1745,130,1702,130C1658.2,130,1615,130,1571,130C1527.3,130,1484,130,1440,130C1396.4,130,1353,130,1309,130C1265.5,130,1222,130,1178,130C1134.5,130,1091,130,1047,130C1003.6,130,960,130,916,130C872.7,130,829,130,785,130C741.8,130,698,130,655,130C610.9,130,567,130,524,130C480,130,436,130,393,130C349.1,130,305,130,262,130C218.2,130,175,130,131,130C87.3,130,44,130,22,130L0,130Z"/><defs><linearGradient id="sw-gradient-1" x1="0" x2="0" y1="1" y2="0"><stop stop-color="rgba(34, 116, 165, 1)" offset="0%"/><stop stop-color="rgba(185, 217, 235, 1)" offset="100%"/></linearGradient></defs><path style="transform:translate(0, 50px); opacity:0.9" fill="url(#sw-gradient-1)" d="M0,0L21.8,4.3C43.6,9,87,17,131,32.5C174.5,48,218,69,262,69.3C305.5,69,349,48,393,39C436.4,30,480,35,524,34.7C567.3,35,611,30,655,39C698.2,48,742,69,785,75.8C829.1,82,873,74,916,58.5C960,43,1004,22,1047,19.5C1090.9,17,1135,35,1178,43.3C1221.8,52,1265,52,1309,43.3C1352.7,35,1396,17,1440,19.5C1483.6,22,1527,43,1571,54.2C1614.5,65,1658,65,1702,54.2C1745.5,43,1789,22,1833,28.2C1876.4,35,1920,69,1964,71.5C2007.3,74,2051,43,2095,39C2138.2,35,2182,56,2225,54.2C2269.1,52,2313,26,2356,28.2C2400,30,2444,61,2487,78C2530.9,95,2575,100,2618,101.8C2661.8,104,2705,104,2749,101.8C2792.7,100,2836,95,2880,93.2C2923.6,91,2967,91,3011,91C3054.5,91,3098,91,3120,91L3141.8,91L3141.8,130L3120,130C3098.2,130,3055,130,3011,130C2967.3,130,2924,130,2880,130C2836.4,130,2793,130,2749,130C2705.5,130,2662,130,2618,130C2574.5,130,2531,130,2487,130C2443.6,130,2400,130,2356,130C2312.7,130,2269,130,2225,130C2181.8,130,2138,130,2095,130C2050.9,130,2007,130,1964,130C1920,130,1876,130,1833,130C1789.1,130,1745,130,1702,130C1658.2,130,1615,130,1571,130C1527.3,130,1484,130,1440,130C1396.4,130,1353,130,1309,130C1265.5,130,1222,130,1178,130C1134.5,130,1091,130,1047,130C1003.6,130,960,130,916,130C872.7,130,829,130,785,130C741.8,130,698,130,655,130C610.9,130,567,130,524,130C480,130,436,130,393,130C349.1,130,305,130,262,130C218.2,130,175,130,131,130C87.3,130,44,130,22,130L0,130Z"/></svg>